<?xml version="1.0" standalone="no"?><!DOCTYPE svg PUBLIC "-//W3C//DTD SVG 1.1//EN" "http://www.w3.org/Graphics/SVG/1.1/DTD/svg11.dtd"><svg t="1503886524292" class="icon" style="" viewBox="0 0 1024 1024" version="1.1" xmlns="http://www.w3.org/2000/svg" p-id="2929" xmlns:xlink="http://www.w3.org/1999/xlink" width="48" height="48"><defs><style type="text/css"></style></defs><path d="M947.509543 898.852403 726.787249 678.130109c55.154992-64.569202 88.411712-148.273808 88.411712-239.653043 0-203.735785-165.77196-369.507745-369.507745-369.507745s-369.507745 165.77196-369.507745 369.507745 165.77196 369.610073 369.507745 369.610073c91.379235 0 175.083841-33.359049 239.653043-88.411712l220.722294 220.722294c5.730389 5.730389 13.20036 8.595583 20.772659 8.595583 7.469971 0 15.04227-2.865194 20.772659-8.595583C958.970321 928.834616 958.970321 910.313181 947.509543 898.852403zM134.817628 438.477066c0-171.40002 139.473569-310.873588 310.873588-310.873588S756.564805 267.077046 756.564805 438.477066c0 171.40002-139.473569 310.873588-310.873588 310.873588S134.817628 609.877086 134.817628 438.477066z" p-id="2930" fill="#878787"></path></svg>